HIERARCHY
ROOT hip
{
	OFFSET 0.000000 0.000000 0.000000 
	CHANNELS 6 Xposition Yposition Zposition Xrotation Zrotation Yrotation
	JOINT abdomen
	{
		OFFSET 0.000000 3.402643 0.000000 
		CHANNELS 3 Xrotation Zrotation Yrotation
		JOINT chest
		{
			OFFSET 0.000000 8.438565 -0.680529 
			CHANNELS 3 Xrotation Zrotation Yrotation
			JOINT neck
			{
				OFFSET 0.000000 10.207942 -0.272212 
				CHANNELS 3 Xrotation Zrotation Yrotation
				JOINT head
				{
					OFFSET 0.000000 3.130431 0.000000 
					CHANNELS 3 Xrotation Zrotation Yrotation
					End Site
					{
						OFFSET 0.000000 3.130435 0.000000 
					}
				}
			}
			JOINT lCollar
			{
				OFFSET 3.470700 6.669187 -0.816635 
				CHANNELS 3 Yrotation Zrotation Xrotation
				JOINT lShldr
				{
					OFFSET 3.198488 0.000000 0.000000 
					CHANNELS 3 Zrotation Yrotation Xrotation
					JOINT lForeArm
					{
						OFFSET 10.139888 0.000000 0.000000 
						CHANNELS 3 Yrotation Zrotation Xrotation
						JOINT lHand
						{
							OFFSET 8.370511 0.000000 0.000000 
							CHANNELS 3 Zrotation Yrotation Xrotation
							End Site
							{
								OFFSET 4.083176 0.000000 0.000000 
							}
						}
					}
				}
			}
			JOINT rCollar
			{
				OFFSET -3.470700 6.669187 -0.816635 
				CHANNELS 3 Yrotation Zrotation Xrotation
				JOINT rShldr
				{
					OFFSET -3.198488 0.000000 0.000000 
					CHANNELS 3 Zrotation Yrotation Xrotation
					JOINT rForeArm
					{
						OFFSET -10.139888 0.000000 0.000000 
						CHANNELS 3 Yrotation Zrotation Xrotation
						JOINT rHand
						{
							OFFSET -8.370511 0.000000 0.000000 
							CHANNELS 3 Zrotation Yrotation Xrotation
							End Site
							{
								OFFSET -4.083176 0.000000 0.000000 
							}
						}
					}
				}
			}
		}
	}
	JOINT lThigh
	{
		OFFSET 5.308129 -1.633274 1.361059 
		CHANNELS 3 Xrotation Zrotation Yrotation
		JOINT lShin
		{
			OFFSET -2.041588 -20.007561 0.000000 
			CHANNELS 3 Xrotation Zrotation Yrotation
			JOINT lFoot
			{
				OFFSET 0.000000 -19.190928 -1.224953 
				CHANNELS 3 Xrotation Yrotation Zrotation
				End Site
				{
					OFFSET 0.000000 -2.449906 4.627600 
				}
			}
		}
	}
	JOINT rThigh
	{
		OFFSET -5.308129 -1.633274 1.361059 
		CHANNELS 3 Xrotation Zrotation Yrotation
		JOINT rShin
		{
			OFFSET 2.041588 -20.007561 0.000000 
			CHANNELS 3 Xrotation Zrotation Yrotation
			JOINT rFoot
			{
				OFFSET 0.000000 -19.190928 -1.224953 
				CHANNELS 3 Xrotation Yrotation Zrotation
				End Site
				{
					OFFSET 0.000000 -2.449906 4.627600 
				}
			}
		}
	}
}
MOTION
Frames: 6
Frame Time: 0.016667
-2.474340 42.943680 -2.206290 7.836390 -1.905880 -0.799545 -10.915200 0.481065 -1.102640 17.246099 0.165739 -0.488103 16.595900 -1.416440 -1.201010 13.690400 3.676920 0.062495 2.000000 -2.000000 0.000000 -99.804497 -21.700701 -113.350998 133.261993 -0.114457 0.116470 0.072543 -0.074109 -164.431000 -2.000000 2.000000 0.000000 88.480499 10.635200 -121.314003 -141.270004 0.115811 0.069674 -0.054455 0.004266 -138.445007 -19.859671 5.642453 -5.437276 28.203932 2.887663 2.092088 -12.976880 12.237713 3.280179 -10.222850 2.337920 0.638219 12.682363 -2.168414 -1.230379 -14.697824 -4.853039 -3.275169 
-2.602147 42.969070 -2.218400 7.905250 -2.002290 -0.951968 -11.413700 0.563784 -1.077680 16.396400 0.331156 -0.492837 17.102100 -1.541360 -1.190720 13.817100 3.636770 0.073768 2.000000 -2.000000 0.000000 -99.892303 -20.900000 -113.478996 133.203003 -0.114566 0.116572 0.072530 -0.074085 -164.421997 -2.000000 2.000000 0.000000 87.630699 9.780190 -116.688004 -140.283005 0.117193 0.071367 -0.056221 0.024110 -145.563995 -19.961353 5.899384 -5.455567 28.292051 2.889654 2.091360 -12.806504 12.373394 3.308414 -10.093844 2.552061 0.712699 12.217537 -2.106404 -1.234138 -14.391973 -4.883319 -3.284300 
-2.711294 43.021271 -2.213907 7.914930 -1.982900 -0.988683 -11.032100 0.390339 -1.125980 17.148399 0.116980 -0.505014 16.832001 -1.393650 -1.222900 13.729600 3.676410 0.055235 2.000000 -2.000000 0.000000 -99.677696 -21.417601 -113.468002 133.125000 -0.114711 0.116709 0.072708 -0.074424 -164.557999 -2.000000 2.000000 0.000000 87.957001 10.573200 -118.502998 -140.186005 0.117331 0.071533 -0.055498 0.018745 -143.630997 -19.931480 5.966607 -5.560585 28.190371 2.919183 2.079881 -12.553144 12.535375 3.327262 -9.756845 2.598391 0.714031 11.473481 -2.040778 -1.184793 -13.983696 -5.075673 -3.307503 
-2.802502 43.091148 -2.201527 7.885430 -1.944340 -0.953013 -10.933900 0.274136 -1.161050 17.353500 0.000000 -0.517578 16.700300 -1.146960 -1.259360 13.681600 3.754070 0.036527 2.000000 -2.000000 0.000000 -99.560699 -21.583700 -113.542999 133.173996 -0.114620 0.116623 0.072291 -0.073624 -164.235992 -2.000000 2.000000 0.000000 88.304604 10.908500 -121.224998 -141.065002 0.116096 0.070028 -0.054457 0.004321 -138.464996 -19.815025 5.986302 -5.683514 28.039482 2.945400 2.058977 -12.188663 12.615908 3.279364 -9.486959 2.644551 0.670649 10.966964 -2.080690 -1.120541 -13.781155 -5.363027 -3.315775 
-2.876668 43.169132 -2.180161 7.875480 -1.905700 -0.869203 -10.972400 0.240464 -1.223650 17.324200 0.019500 -0.557742 16.757500 -1.211130 -1.247280 13.710700 3.734430 0.054057 2.000000 -2.000000 0.000000 -99.522102 -21.603300 -113.709000 133.281998 -0.114420 0.116435 0.071979 -0.073016 -163.992004 -2.000000 2.000000 0.000000 88.324203 10.986600 -121.254997 -141.044998 0.116123 0.070062 -0.054472 0.004867 -138.660004 -19.713274 6.018780 -5.786714 27.823816 2.938511 2.050624 -11.723840 12.690552 3.246160 -8.999073 2.657698 0.794889 9.997857 -2.037657 -1.068533 -13.513007 -5.713140 -3.383195 
-2.933106 43.245319 -2.153064 7.885070 -1.866960 -0.766512 -11.001100 0.228718 -1.310000 17.343700 0.087752 -0.610395 16.938801 -1.403520 -1.212070 13.797800 3.656270 0.066073 2.000000 -2.000000 0.000000 -99.522003 -21.642401 -113.689003 133.360001 -0.114275 0.116298 0.072128 -0.073308 -164.108994 -2.000000 2.000000 0.000000 88.323997 11.084100 -121.108002 -141.162003 0.115960 0.069860 -0.054486 0.005305 -138.815994 -19.586464 6.019225 -5.848109 27.553423 2.969016 2.002516 -11.258623 12.646972 3.142432 -8.480439 2.636006 0.961601 8.945956 -1.985839 -0.960331 -13.298122 -6.207594 -3.517024 
